ISO-10303-21;
HEADER;
FILE_DESCRIPTION(('ViewDefinition [ReferenceView]'),'2;1');
FILE_NAME('Infra-Road.ifc','2026-06-23T11:54:08',(''),(''),'Sketchup-IFC-manager 5.6.0 / SketchUp 2026 (26.2.242)','BIM_Tools - Sketchup_IFC_manager - 5.6.0','None');
FILE_SCHEMA(('IFC4X3_ADD2'));
ENDSEC;
DATA;
#1=IFCOWNERHISTORY(#2,#5,$,.ADDED.,1782208448,#2,#5,1782208448);
#2=IFCPERSONANDORGANIZATION(#3,#4,$);
#3=IFCPERSON('3720f2e9-0107-4ce6-b699-e20d9bd03331','Jan B.',$,$,$,$,$,$);
#4=IFCORGANIZATION($,'buildingSMART International','buildingSMART is the worldwide industry body driving the digital transformation of the built environment.',$,$);
#5=IFCAPPLICATION(#6,'5.6.0','IFC manager for sketchup','su_ifcmanager');
#6=IFCORGANIZATION($,'BIM-Tools',$,$,$);
#7=IFCAXIS2PLACEMENT3D(#8,#9,#10);
#8=IFCCARTESIANPOINT((0.,0.,0.));
#9=IFCDIRECTION((0.,0.,1.));
#10=IFCDIRECTION((1.,0.,0.));
#11=IFCGEOMETRICREPRESENTATIONCONTEXT($,'Model',3,0.001,#7,$);
#12=IFCGEOMETRICREPRESENTATIONSUBCONTEXT('Body','Model',*,*,*,*,#11,$,.MODEL_VIEW.,$);
#13=IFCPROJECT('2Ndyd$OSX7s9A04nc4lyye',#1,'ifc silly sample scene - project','Demystifying IFC with a playful scene using diverse building elements and compositions.',$,$,$,(#11),#14);
#14=IFCUNITASSIGNMENT((#15,#16,#17));
#15=IFCSIUNIT(*,.LENGTHUNIT.,.MILLI.,.METRE.);
#16=IFCSIUNIT(*,.AREAUNIT.,$,.SQUARE_METRE.);
#17=IFCSIUNIT(*,.VOLUMEUNIT.,$,.CUBIC_METRE.);
#23=IFCLOCALPLACEMENT($,#7);
#400=IFCLOCALPLACEMENT(#23,#401);
#401=IFCAXIS2PLACEMENT3D(#402,#403,#404);
#402=IFCCARTESIANPOINT((17320.508,30000.,0.));
#403=IFCDIRECTION((0.,0.,1.));
#404=IFCDIRECTION((-0.5000000000000003,0.8660254037844387,0.));
#407=IFCLOCALPLACEMENT(#400,#408);
#408=IFCAXIS2PLACEMENT3D(#409,#410,#411);
#409=IFCCARTESIANPOINT((0.,0.,0.));
#410=IFCDIRECTION((0.,0.,1.));
#411=IFCDIRECTION((1.,2.5762814944582876E-17,0.));
#414=IFCLOCALPLACEMENT(#407,#415);
#415=IFCAXIS2PLACEMENT3D(#416,#417,#418);
#416=IFCCARTESIANPOINT((0.,0.,0.));
#417=IFCDIRECTION((-1.5815362361441074E-15,-2.9936039337702337E-15,1.));
#418=IFCDIRECTION((-1.,-2.782880186611347E-14,-1.5815362361441892E-15));
#443=IFCLOCALPLACEMENT(#414,#444);
#444=IFCAXIS2PLACEMENT3D(#445,#446,#447);
#445=IFCCARTESIANPOINT((0.,0.,0.));
#446=IFCDIRECTION((0.,0.,1.));
#447=IFCDIRECTION((1.,1.771509925297196E-17,0.));
#473=IFCEARTHWORKSFILL('24yB027vXAnwvB5wEFTdUW',#1,'road subgrade - bridge road','A stable subgrade, forming the foundation of the bridge road.','subgrade',#474,#483,'454425.1027893.1882581.1882584.953129.940414',.SUBGRADE.);
#474=IFCLOCALPLACEMENT(#443,#475);
#475=IFCAXIS2PLACEMENT3D(#476,#477,#478);
#476=IFCCARTESIANPOINT((0.,0.,0.));
#477=IFCDIRECTION((0.,0.,1.));
#478=IFCDIRECTION((1.,1.771509925297196E-17,0.));
#479=IFCSHAPEREPRESENTATION(#12,'Body','Tessellation',(#480));
#480=IFCTRIANGULATEDFACESET(#481,((1.,5.551115123126493E-17,-7.958230344716182E-16),(1.,5.551115123126493E-17,-7.958230344716182E-16),(1.,5.551115123126493E-17,-7.958230344716182E-16),(1.,5.551115123126493E-17,-7.958230344716182E-16),(1.,5.551115123126493E-17,-7.958230344716182E-16),(1.,5.551115123126493E-17,-7.958230344716182E-16),(1.,5.551115123126493E-17,-7.958230344716182E-16),(1.1102230246235572E-16,1.,1.0408201073375603E-13),(1.1102230246235572E-16,1.,1.0408201073375603E-13),(1.1102230246235572E-16,1.,1.0408201073375603E-13),(1.1102230246235572E-16,1.,1.0408201073375603E-13),(1.1102230246235572E-16,1.,1.0408201073375603E-13),(1.1102230246235572E-16,1.,1.0408201073375603E-13),(-1.,-1.1102230246249019E-16,-1.0078613754329445E-14),(-1.,-1.1102230246249019E-16,-1.0078613754329445E-14),(-1.,-1.1102230246249019E-16,-1.0078613754329445E-14),(-1.,-1.1102230246249019E-16,-1.0078613754329445E-14),(-1.,-1.1102230246249019E-16,-1.0078613754329445E-14),(-1.,-1.1102230246249019E-16,-1.0078613754329445E-14),(-1.,-1.1102230246249019E-16,-1.0078613754329445E-14),(1.8245961432259226E-14,-2.5042623494319584E-14,1.),(1.8245961432259226E-14,-2.5042623494319584E-14,1.),(1.8245961432259226E-14,-2.5042623494319584E-14,1.),(1.8245961432259226E-14,-2.5042623494319584E-14,1.),(1.8245961432259226E-14,-2.5042623494319584E-14,1.),(1.8245961432259226E-14,-2.5042623494319584E-14,1.),(1.8245961432259226E-14,-2.5042623494319584E-14,1.),(1.8245961432259226E-14,-2.5042623494319584E-14,1.),(3.7284118489250285E-15,0.9950371902099763,0.09950371902112763),(3.7284118489250285E-15,0.9950371902099763,0.09950371902112763),(3.7284118489250285E-15,0.9950371902099763,0.09950371902112763),(3.7284118489250285E-15,0.9950371902099763,0.09950371902112763),(8.27260307701615E-15,-0.09950371902095466,0.9950371902099936),(8.27260307701615E-15,-0.09950371902095466,0.9950371902099936),(8.27260307701615E-15,-0.09950371902095466,0.9950371902099936),(8.27260307701615E-15,-0.09950371902095466,0.9950371902099936),(-1.1102230246252034E-16,-1.,3.944304526105058E-31),(-1.1102230246252034E-16,-1.,3.944304526105058E-31),(-1.1102230246252034E-16,-1.,3.944304526105058E-31),(-1.1102230246252034E-16,-1.,3.944304526105058E-31),(-3.911586266072457E-18,2.283816203165735E-18,-1.),(-3.911586266072457E-18,2.283816203165735E-18,-1.),(-3.911586266072457E-18,2.283816203165735E-18,-1.),(-3.911586266072457E-18,2.283816203165735E-18,-1.),(-3.911586266072457E-18,2.283816203165735E-18,-1.),(-3.911586266072457E-18,2.283816203165735E-18,-1.),(-3.911586266072457E-18,2.283816203165735E-18,-1.),(-3.911586266072457E-18,2.283816203165735E-18,-1.),(-1.665334536937743E-15,-1.,2.7816874224876205E-15),(-1.665334536937743E-15,-1.,2.7816874224876205E-15),(-1.665334536937743E-15,-1.,2.7816874224876205E-15),(-1.665334536937743E-15,-1.,2.7816874224876205E-15),(1.,2.7200464103315893E-15,1.6290481409112566E-14),(1.,2.7200464103315893E-15,1.6290481409112566E-14),(1.,2.7200464103315893E-15,1.6290481409112566E-14),(1.,2.7200464103315893E-15,1.6290481409112566E-14),(2.7200464103316367E-15,1.,1.0595825564074926E-16),(2.7200464103316367E-15,1.,1.0595825564074926E-16),(2.7200464103316367E-15,1.,1.0595825564074926E-16),(2.7200464103316367E-15,1.,1.0595825564074926E-16),(-1.,-2.6645352591003307E-15,-1.6380720336554708E-14),(-1.,-2.6645352591003307E-15,-1.6380720336554708E-14),(-1.,-2.6645352591003307E-15,-1.6380720336554708E-14),(-1.,-2.6645352591003307E-15,-1.6380720336554708E-14)),$,((1,2,3),(2,1,4),(2,4,5),(4,1,6),(6,1,7),(8,9,10),(9,8,11),(11,8,12),(12,8,13),(14,15,16),(15,14,17),(15,17,18),(18,17,19),(18,19,20),(21,22,23),(22,21,24),(24,21,25),(25,21,26),(23,26,27),(26,23,28),(28,23,22),(26,28,25),(29,30,31),(30,29,32),(33,34,35),(34,33,36),(37,38,39),(38,37,40),(41,42,43),(42,41,44),(44,41,45),(46,47,48),(47,46,43),(47,43,42),(48,47,45),(48,45,41),(49,50,51),(50,49,52),(53,54,55),(54,53,56),(57,58,59),(58,57,60),(61,62,63),(62,61,64)),$);
#481=IFCCARTESIANPOINTLIST3D(((1800.,-5120.5,-370.),(1800.,-10000.,-120.),(1800.,-10000.,-370.),(1800.,-7368.71,-199.007),(1800.,-7376.611,-120.),(1800.,-5120.5,25.814),(1800.,-5120.5,-120.),(-1800.,-5120.5,-120.),(1800.,-5120.5,-370.),(-1800.,-5120.5,-370.),(1800.,-5120.5,-120.),(1800.,-5120.5,25.814),(-1800.,-5120.5,25.814),(-1800.,-7376.611,-120.),(-1800.,-10000.,-370.),(-1800.,-10000.,-120.),(-1800.,-7368.71,-199.007),(-1800.,-5120.5,-370.),(-1800.,-5120.5,25.814),(-1800.,-5120.5,-120.),(1800.,-10000.,-120.),(-325.,-9950.,-120.),(-1800.,-10000.,-120.),(325.,-9950.,-120.),(325.,-9300.,-120.),(1800.,-7376.611,-120.),(-1800.,-7376.611,-120.),(-325.,-9300.,-120.),(-1800.,-7368.71,-199.007),(1800.,-7376.611,-120.),(1800.,-7368.71,-199.007),(-1800.,-7376.611,-120.),(1800.,-7368.71,-199.007),(-1800.,-5120.5,25.814),(-1800.,-7368.71,-199.007),(1800.,-5120.5,25.814),(1800.,-10000.,-120.),(-1800.,-10000.,-370.),(1800.,-10000.,-370.),(-1800.,-10000.,-120.),(1800.,-5120.5,-370.),(-325.,-9300.,-370.),(-1800.,-5120.5,-370.),(325.,-9300.,-370.),(325.,-9950.,-370.),(-1800.,-10000.,-370.),(-325.,-9950.,-370.),(1800.,-10000.,-370.),(325.,-9300.,-120.),(-325.,-9300.,-370.),(325.,-9300.,-370.),(-325.,-9300.,-120.),(-325.,-9300.,-370.),(-325.,-9950.,-120.),(-325.,-9950.,-370.),(-325.,-9300.,-120.),(-325.,-9950.,-120.),(325.,-9950.,-370.),(-325.,-9950.,-370.),(325.,-9950.,-120.),(325.,-9300.,-120.),(325.,-9950.,-370.),(325.,-9950.,-120.),(325.,-9300.,-370.)),$);
#483=IFCPRODUCTDEFINITIONSHAPE($,$,(#479));
ENDSEC;
END-ISO-10303-21;
